<?xml version="1.0" encoding="iso-8859-1"?>
<!-- Generator: Adobe Illustrator 19.0.0, SVG Export Plug-In . SVG Version: 6.00 Build 0)  -->
<svg version="1.1" id="Layer_1" xmlns="http://www.w3.org/2000/svg" xmlns:xlink="http://www.w3.org/1999/xlink" x="0px" y="0px"
	 viewBox="0 0 301.338 301.338" style="enable-background:new 0 0 301.338 301.338;" xml:space="preserve">
<g>
	<g>
		<path d="M297.032,87.462c-5.74-5.74-15.048-5.74-20.789,0l-34.639,34.639c-8.329,8.329-19.406,12.917-31.188,12.92
			c-0.004,0-0.007,0-0.011,0c-6.69,0-13.155-1.48-19.014-4.284l64.064-64.065c5.741-5.741,5.741-15.049,0-20.789
			c-5.74-5.74-15.048-5.74-20.789,0l-64.049,64.05c-7.81-16.391-4.934-36.645,8.622-50.201l34.639-34.639
			c5.741-5.74,5.741-15.049,0-20.789c-5.74-5.74-15.048-5.74-20.789,0L158.45,38.944c-25.104,25.104-28.223,63.991-9.358,92.514
			l-28.765,28.765l-10.395-10.395c-2.757-2.757-6.495-4.306-10.394-4.306s-7.638,1.548-10.394,4.306l-76.228,76.227
			C4.587,234.385,0,245.46,0,257.238c0.001,11.781,4.589,22.855,12.918,31.183c8.329,8.329,19.403,12.916,31.182,12.916
			c11.78,0,22.853-4.587,31.184-12.916l76.225-76.225c5.74-5.74,5.741-15.048,0-20.789l-10.394-10.394l28.757-28.757
			c11.918,7.913,25.896,12.166,40.533,12.165c0.005,0,0.013,0,0.018,0c19.633-0.005,38.091-7.651,51.97-21.532l34.639-34.639
			C302.773,102.51,302.773,93.202,297.032,87.462z M54.496,267.632c-2.777,2.776-6.469,4.306-10.396,4.306
			c-3.926,0-7.617-1.529-10.394-4.306c-2.776-2.776-4.306-6.468-4.306-10.394c0-3.926,1.53-7.617,4.305-10.393l65.833-65.833
			l10.39,10.391c0.002,0.002,0.003,0.003,0.005,0.005c0.002,0.002,0.003,0.003,0.005,0.005l10.39,10.39L54.496,267.632z"/>
	</g>
</g>
<g>
</g>
<g>
</g>
<g>
</g>
<g>
</g>
<g>
</g>
<g>
</g>
<g>
</g>
<g>
</g>
<g>
</g>
<g>
</g>
<g>
</g>
<g>
</g>
<g>
</g>
<g>
</g>
<g>
</g>
</svg>
